# xmcd
#
# Track frame offsets:
# 150
# 9799
# 36611
# 54587
# 68483
# 79292
# 99444
# 115665
# 128279
# 145728
#
# Disc length: 2131 seconds
#
#
# Revision: 3
# Processed by: cddbd v1.5.2PL0 Copyright (c) Steve Scherf et al.
# Submitted via: FreeRIP 2.96 
#
DISCID=7508510a
DTITLE=Marcelo Loureiro - Marcelo Loureiro
DYEAR=2004
DGENRE=Instrumental
TTITLE0=Abiejo Pablo
TTITLE1=La Cahu
TTITLE2=Alamigazo Chengo
TTITLE3=Zapateando en Curuzu
TTITLE4=Cururuvieudo
TTITLE5=Mi Bien Amada
TTITLE6=Techos de Paja
TTITLE7=Fortin Correntino
TTITLE8=Repiqueteando
TTITLE9=Aire Manantialero
EXTD=
EXTT0=
EXTT1=
EXTT2=
EXTT3=
EXTT4=
EXTT5=
EXTT6=
EXTT7=
EXTT8=
EXTT9=
PLAYORDER=
